<?xml version="1.0" encoding="utf-8"?>
<!-- Generator: Adobe Illustrator 16.0.0, SVG Export Plug-In . SVG Version: 6.00 Build 0)  -->
<!DOCTYPE svg PUBLIC "-//W3C//DTD SVG 1.1//EN" "http://www.w3.org/Graphics/SVG/1.1/DTD/svg11.dtd">
<svg version="1.1" id="Layer_1" xmlns="http://www.w3.org/2000/svg" xmlns:xlink="http://www.w3.org/1999/xlink" x="0px" y="0px"
	 width="75px" height="19.083px" viewBox="0 0 75 19.083" style="enable-background:new 0 0 75 19.083;" xml:space="preserve" class="egegen-logo">

<g>
	<path style="fill:#002646;" d="M12.987,7.347c-0.294,1.766-0.987,3.163-2.083,4.19c-1.097,1.023-2.429,1.539-3.996,1.539
		c-0.524,0-1.045-0.074-1.563-0.217c-0.516-0.145-1.012-0.363-1.486-0.656c-0.971-0.615-1.723-1.41-2.256-2.386
		C1.068,8.846,0.804,7.774,0.804,6.604c0-0.86,0.155-1.68,0.462-2.454c0.307-0.778,0.752-1.473,1.332-2.096
		c0.584-0.617,1.247-1.088,1.987-1.408c0.743-0.32,1.524-0.479,2.344-0.479c1.214,0,2.302,0.328,3.26,0.989
		c0.958,0.656,1.748,1.624,2.362,2.903L4.644,8.565L3.731,6.894l5.87-3.379C9.256,3.13,8.854,2.823,8.387,2.599
		C7.924,2.378,7.429,2.266,6.904,2.266c-1.076,0-1.987,0.416-2.735,1.249C3.42,4.344,3.048,5.373,3.048,6.596
		c0,1.221,0.369,2.25,1.113,3.08c0.744,0.833,1.659,1.249,2.743,1.249c1.017,0,1.873-0.346,2.567-1.042
		c0.693-0.691,1.13-1.65,1.311-2.877L12.987,7.347z"/>
	<path style="fill:#002646;" d="M38.359,7.347c-0.295,1.766-0.987,3.163-2.084,4.19c-1.097,1.023-2.429,1.539-3.996,1.539
		c-0.525,0-1.046-0.074-1.562-0.217c-0.517-0.145-1.013-0.363-1.488-0.656c-0.844-0.533-1.522-1.205-2.037-2.014l-1.666,0.95v0.978
		c0,2.008-0.55,3.594-1.651,4.76c-1.101,1.162-2.605,1.744-4.517,1.744c-0.311,0-0.609-0.013-0.895-0.037
		c-0.282-0.027-0.593-0.074-0.928-0.145c-0.596-0.107-1.261-0.288-1.979-0.536l0.466-2.106c0.723,0.234,1.356,0.402,1.907,0.509
		c0.55,0.106,1.042,0.165,1.479,0.165c1.231,0,2.198-0.372,2.899-1.111c0.689-0.729,1.039-1.722,1.05-2.986
		c-0.657,0.377-1.1,0.666-1.834,0.903c-3.918,1.276-8.097-1.93-8.097-6.665c0-7.103,8.705-8.625,11.436-3.055
		c0.104,0.221,0.202,0.463,0.29,0.722c0.084,0.263,0.156,0.541,0.215,0.838c0.105,0.605,0.159,1.443,0.159,2.506v1.299l0.883-0.501
		c-0.156-0.577-0.234-1.183-0.234-1.817c0-0.86,0.155-1.68,0.462-2.454c0.307-0.778,0.753-1.473,1.332-2.096
		c0.584-0.617,1.248-1.088,1.988-1.408c0.744-0.32,1.525-0.479,2.344-0.479c1.214,0,2.302,0.328,3.26,0.989
		c0.958,0.656,1.748,1.624,2.36,2.903C34.97,5.741,32.05,7.42,29.098,9.103c0.127,0.199,0.271,0.391,0.434,0.572
		c0.743,0.833,1.659,1.248,2.745,1.248c1.016,0,1.873-0.344,2.566-1.041c0.693-0.691,1.13-1.65,1.311-2.877L38.359,7.347
		L38.359,7.347z M34.972,3.515c-0.345-0.385-0.747-0.692-1.213-0.917c-0.463-0.22-0.958-0.333-1.482-0.333
		c-1.077,0-1.988,0.416-2.736,1.249c-0.748,0.829-1.122,1.857-1.122,3.081c0,0.225,0.012,0.445,0.038,0.657L34.972,3.515
		L34.972,3.515z M23.358,10.157v-3.51c0-5.831-7.739-5.768-7.739-0.078c0,3.551,2.866,5.486,5.62,4.672
		C21.975,11.024,22.691,10.54,23.358,10.157z"/>
	<path style="fill:#002646;" d="M64.205,12.842V6.067c0-1.796,0.468-3.226,1.402-4.285c0.934-1.058,2.181-1.59,3.738-1.59
		c1.559,0,2.803,0.527,3.728,1.582c0.929,1.059,1.392,2.488,1.392,4.293v6.773h-2.143V5.661c0-0.989-0.279-1.788-0.831-2.397
		c-0.556-0.613-1.271-0.92-2.147-0.92c-0.867,0-1.58,0.307-2.146,0.924c-0.567,0.617-0.85,1.413-0.85,2.393v7.179h-2.143V12.842z"/>
	<path style="fill:#002646;" d="M63.73,7.347c-0.293,1.766-0.987,3.163-2.084,4.19c-1.096,1.023-2.428,1.539-3.994,1.539
		c-0.525,0-1.047-0.074-1.563-0.217c-0.516-0.145-1.011-0.363-1.485-0.656c-0.846-0.533-1.523-1.205-2.039-2.014l-1.666,0.95v0.978
		c0,2.008-0.551,3.594-1.648,4.76c-1.104,1.162-2.605,1.744-4.518,1.744c-0.312,0-0.608-0.013-0.896-0.037
		c-0.279-0.027-0.592-0.074-0.928-0.145c-0.598-0.107-1.26-0.288-1.979-0.536l0.467-2.106c0.723,0.234,1.356,0.402,1.908,0.509
		c0.549,0.106,1.041,0.165,1.479,0.165c1.23,0,2.197-0.372,2.898-1.111c0.688-0.729,1.039-1.722,1.049-2.986
		c-0.437,0.25-0.834,0.498-1.291,0.697c-4.062,1.777-8.641-1.502-8.641-6.459c0-7.103,8.704-8.625,11.436-3.055
		c0.106,0.221,0.203,0.463,0.293,0.722c0.084,0.263,0.154,0.541,0.214,0.838c0.104,0.605,0.157,1.443,0.157,2.506v1.299l0.884-0.501
		c-0.155-0.577-0.233-1.183-0.233-1.817c0-0.86,0.154-1.68,0.461-2.454c0.309-0.778,0.754-1.473,1.332-2.096
		c0.586-0.617,1.249-1.088,1.987-1.408c0.743-0.32,1.524-0.479,2.347-0.479c1.213,0,2.301,0.328,3.258,0.989
		c0.959,0.656,1.75,1.624,2.361,2.903c-2.951,1.682-5.869,3.361-8.824,5.044c0.129,0.199,0.272,0.391,0.437,0.572
		c0.743,0.833,1.659,1.248,2.741,1.248c1.018,0,1.875-0.344,2.568-1.041c0.692-0.691,1.129-1.65,1.309-2.877L63.73,7.347
		L63.73,7.347z M60.346,3.515c-0.344-0.385-0.748-0.692-1.214-0.917c-0.464-0.22-0.96-0.333-1.483-0.333
		c-1.075,0-1.986,0.416-2.734,1.249c-0.748,0.829-1.121,1.857-1.121,3.081c0,0.225,0.012,0.445,0.037,0.657L60.346,3.515
		L60.346,3.515z M48.729,10.157v-3.51c0-5.831-7.735-5.768-7.735-0.078c0,3.715,3.133,5.661,5.997,4.541
		C47.548,10.892,48.198,10.463,48.729,10.157z"/>
</g>
</svg>
