<?xml version="1.0" encoding="utf-8"?>
<!-- Generator: Adobe Illustrator 16.0.0, SVG Export Plug-In . SVG Version: 6.00 Build 0)  -->
<!DOCTYPE svg PUBLIC "-//W3C//DTD SVG 1.1//EN" "http://www.w3.org/Graphics/SVG/1.1/DTD/svg11.dtd">
<svg version="1.1" id="Layer_1" xmlns="http://www.w3.org/2000/svg" xmlns:xlink="http://www.w3.org/1999/xlink" x="0px" y="0px"
	 width="31.083px" height="19.083px" viewBox="0 0 31.083 19.083" style="enable-background:new 0 0 31.083 19.083;"
	 xml:space="preserve" class="oscar-logo">
<g>
	<path style="fill-rule:evenodd;clip-rule:evenodd;fill:#005D6C;" d="M1.478,2.158c-0.11-1.372,0.46-2.126,1.619-1.748
		c0.275,0.608,0.127,0.889-0.18,1.497C2.498,2.735,2.111,2.416,1.478,2.158z"/>
	<path style="fill-rule:evenodd;clip-rule:evenodd;fill:#005D6C;" d="M3.678,2.315c-0.3-0.287-0.274-0.384-0.305-0.812
		c-0.024-0.328-0.02-0.474,0.086-0.835C4.552,1.077,4.506,1.813,3.678,2.315z"/>
	<path style="fill-rule:evenodd;clip-rule:evenodd;fill:#005D6C;" d="M4.756,1.527C4.286,1.798,4.288,1.868,4.075,2.29
		c0.09,0.117,0.243,0.267,0.423,0.427c0.464,0.408,1.12,0.875,1.423,0.958C6.568,2.886,5.49,2.077,4.756,1.527z"/>
	<path style="fill-rule:evenodd;clip-rule:evenodd;fill:#005D6C;" d="M6.664,5.903C6.338,5.489,6.461,5.469,6.228,5.12
		C5.987,4.762,5.854,4.815,5.654,4.401c0.384-0.493,0.41-0.817,1.042-1.07c0.381,0.481,0.654,1.196,0.568,1.742
		C7.207,5.442,6.904,5.691,6.664,5.903z"/>
	<path style="fill-rule:evenodd;clip-rule:evenodd;fill:#005D6C;" d="M2.484,3.087c-0.265-0.372-0.77-0.736-1.16-0.804
		c-0.41,0.604-0.22,1.758-0.219,1.762C1.403,4.743,2.315,3.46,2.484,3.087z"/>
	<path style="fill-rule:evenodd;clip-rule:evenodd;fill:#005D6C;" d="M2.051,6.691c0.643,0.09,1.363,0.782,1.716,1.369
		C2.81,8.3,1.784,7.67,2.051,6.691z"/>
	<path style="fill-rule:evenodd;clip-rule:evenodd;fill:#005D6C;" d="M1.856,4.5c1.021,0.338,0.938,1.167,0.443,2.102L1.821,6.541
		C1.596,6.415,0.39,5.411,1.856,4.5z"/>
	<path style="fill-rule:evenodd;clip-rule:evenodd;fill:#009682;" d="M4.553,4.754C4.335,4.529,3.96,4.241,3.891,3.979
		C3.83,3.757,4.058,3.56,4.082,3.379c0.55-0.278,1.034-0.151,1.692,0.406C5.412,4.407,5.124,4.635,4.553,4.754z"/>
	<path style="fill-rule:evenodd;clip-rule:evenodd;fill:#F7941D;" d="M3.143,2.045c1.025,0.427,1.139,1.184,0.193,1.846
		C1.96,3.278,2.845,2.233,3.143,2.045z"/>
	<path style="fill-rule:evenodd;clip-rule:evenodd;fill:#FFCA05;" d="M4.613,5.543C4.6,4.727,4.277,4.765,3.627,4.316
		C3.169,4,2.527,3.328,2.133,3.783C1.471,4.55,3.825,5.846,4.613,5.543z"/>
	<path style="fill-rule:evenodd;clip-rule:evenodd;fill:#009682;" d="M5.202,7.531C4.873,7.628,4.707,7.819,4.428,7.784
		C3.086,7.615,2.271,5.99,3.096,5.731C3.215,5.694,4.773,5.778,4.913,5.85C5.5,6.156,5.28,7.097,5.202,7.531z"/>
	<path style="fill-rule:evenodd;clip-rule:evenodd;fill:#F7941D;" d="M6.417,7.206C5.865,7.283,5.954,6.849,5.019,5.667L4.836,5.115
		l0.496-0.562C5.906,4.92,5.908,5.142,6.187,5.774C6.398,6.257,6.639,6.807,6.417,7.206z"/>
	<path style="fill-rule:evenodd;clip-rule:evenodd;fill:#005D6C;" d="M5.405,10.402C4.663,10.586,4.23,10.283,4.086,9.79
		C3.948,9.313,3.765,8.592,3.854,8.11C5.301,7.878,5.645,9.226,5.405,10.402z"/>
	<path style="fill-rule:evenodd;clip-rule:evenodd;fill:#005D6C;" d="M8.091,7.112c0.03-0.129,0.385-0.195,0.688-0.711
		C8.917,6.167,9.036,5.76,9.226,5.59c0.176-0.156,0.53-0.167,0.714-0.218c0.435,0.696,0.066,1.268-0.147,1.815
		C9.236,7.732,8.502,8.121,8.091,7.112z"/>
	<path style="fill-rule:evenodd;clip-rule:evenodd;fill:#005D6C;" d="M7.624,4.357c0.324-0.084,0.315-0.153,0.407-0.41
		C8.101,3.75,8.118,3.658,8.073,3.4C6.986,3.31,6.92,3.782,7.624,4.357z"/>
	<path style="fill-rule:evenodd;clip-rule:evenodd;fill:#005D6C;" d="M9.064,2.378c0.473,0.156,0.434,0.54,0.205,0.973L9.048,3.322
		C8.943,3.264,8.385,2.799,9.064,2.378z"/>
	<path style="fill-rule:evenodd;clip-rule:evenodd;fill:#005D6C;" d="M9.848,3.454c-0.04-0.501,0.168-0.777,0.591-0.639
		c0.101,0.222,0.047,0.324-0.066,0.546C10.22,3.664,10.08,3.548,9.848,3.454z"/>
	<path style="fill-rule:evenodd;clip-rule:evenodd;fill:#005D6C;" d="M11.048,4.088c0.443,0.048,0.367,0.287,0.102,0.575
		l-0.211,0.005C10.844,4.643,10.347,4.415,11.048,4.088z"/>
	<path style="fill-rule:evenodd;clip-rule:evenodd;fill:#F7941D;" d="M10.725,4.671c-0.07-0.189-0.061-0.293-0.14-0.354
		c-0.225,0.06-0.505,0.1-0.617,0.299c-0.037,0.064,0.094,0.117,0.063,0.201C10.343,4.887,10.461,4.8,10.725,4.671z"/>
	<path style="fill-rule:evenodd;clip-rule:evenodd;fill:#009682;" d="M9.432,3.562c0.025,0.34,0.048,0.258-0.11,0.499
		c-0.15-0.047-0.133,0.003-0.219-0.205C8.942,3.47,9.128,3.153,9.432,3.562z"/>
	<path style="fill-rule:evenodd;clip-rule:evenodd;fill:#F7941D;" d="M9.778,3.556c0.18-0.065,0.301,0.015,0.347,0.125
		c-0.088,0.216-0.105,0.413-0.276,0.531C9.796,4.249,9.641,4.231,9.575,4.264C9.584,3.978,9.632,3.81,9.778,3.556z"/>
	<path style="fill-rule:evenodd;clip-rule:evenodd;fill:#009682;" d="M8.366,3.769C8.594,3.95,8.76,4.168,8.784,4.342
		c-0.123,0.035-0.071,0.152-0.216,0.13C8.241,4.423,8.223,4.421,8.006,4.186C8.093,3.958,8.171,3.757,8.366,3.769z"/>
	<path style="fill-rule:evenodd;clip-rule:evenodd;fill:#005D6C;" d="M8.393,5.295C8.471,5.861,8.19,6.1,7.685,5.84
		C7.597,5.069,8.242,5.208,8.393,5.295z"/>
	<path style="fill-rule:evenodd;clip-rule:evenodd;fill:#F7941D;" d="M8.965,5.098C8.857,4.934,8.835,4.831,8.757,4.792
		c-0.16,0.111-0.368,0.218-0.399,0.436c-0.01,0.071,0.107,0.09,0.107,0.177C8.728,5.397,8.795,5.285,8.965,5.098z"/>
	<path style="fill-rule:evenodd;clip-rule:evenodd;fill:#FFCA05;" d="M10.009,5.168C9.984,4.14,8.788,3.884,8.792,4.421
		c0,0.064,0.288,0.816,0.347,0.873C9.381,5.533,9.809,5.276,10.009,5.168z"/>
	<path style="fill-rule:evenodd;clip-rule:evenodd;fill:#005D6C;" d="M3.835,15.904c-0.225-0.386-0.309-0.349-0.671-0.375
		c-0.277-0.02-0.402-0.009-0.717,0.142C2.721,17.096,3.352,17.011,3.835,15.904z"/>
	<path style="fill-rule:evenodd;clip-rule:evenodd;fill:#005D6C;" d="M0.782,14.767c0.031-0.662,0.537-0.75,1.173-0.612l0.044,0.294
		C1.961,14.603,1.566,15.486,0.782,14.767z"/>
	<path style="fill-rule:evenodd;clip-rule:evenodd;fill:#005D6C;" d="M1.88,13.375c-0.629,0.231-1.056,0.063-1.031-0.53
		c0.249-0.208,0.399-0.175,0.725-0.111C2.016,12.822,1.917,13.045,1.88,13.375z"/>
	<path style="fill-rule:evenodd;clip-rule:evenodd;fill:#005D6C;" d="M2.262,11.608c-0.097-0.585,0.237-0.573,0.701-0.336
		l0.083,0.27C3.048,11.673,2.933,12.39,2.262,11.608z"/>
	<path style="fill-rule:evenodd;clip-rule:evenodd;fill:#F7941D;" d="M3.126,11.814c-0.218,0.158-0.354,0.184-0.405,0.307
		c0.157,0.266,0.31,0.611,0.605,0.684c0.095,0.022,0.117-0.162,0.234-0.155C3.54,12.228,3.386,12.107,3.126,11.814z"/>
	<path style="fill-rule:evenodd;clip-rule:evenodd;fill:#F7941D;" d="M2.17,13.87c0.425-0.156,0.312-0.154,0.678-0.036
		c-0.006,0.208,0.052,0.168-0.184,0.354C2.226,14.532,1.752,14.406,2.17,13.87z"/>
	<path style="fill-rule:evenodd;clip-rule:evenodd;fill:#009682;" d="M2.036,13.428c-0.148-0.207-0.089-0.392,0.037-0.489
		c0.307,0.035,0.566-0.013,0.779,0.163c0.066,0.055,0.1,0.26,0.164,0.333C2.646,13.526,2.414,13.524,2.036,13.428z"/>
	<path style="fill-rule:evenodd;clip-rule:evenodd;fill:#009682;" d="M2.815,15.163c0.15-0.358,0.371-0.646,0.586-0.741
		c0.088,0.145,0.22,0.037,0.244,0.23c0.053,0.437,0.058,0.46-0.166,0.824C3.155,15.445,2.871,15.418,2.815,15.163z"/>
	<path style="fill-rule:evenodd;clip-rule:evenodd;fill:#005D6C;" d="M4.763,14.581c0.698-0.304,1.104-0.029,0.953,0.713
		C4.759,15.684,4.705,14.806,4.763,14.581z"/>
	<path style="fill-rule:evenodd;clip-rule:evenodd;fill:#F7941D;" d="M4.305,13.918c-0.172,0.198-0.296,0.262-0.318,0.377
		c0.2,0.164,0.411,0.393,0.702,0.355c0.094-0.012,0.077-0.169,0.188-0.2C4.773,14.116,4.605,14.068,4.305,13.918z"/>
	<path style="fill-rule:evenodd;clip-rule:evenodd;fill:#FFCA05;" d="M3.993,12.554c-1.311,0.401-1.21,2.027-0.521,1.829
		c0.083-0.024,0.942-0.663,0.995-0.758C4.686,13.228,4.204,12.773,3.993,12.554z"/>
	<path style="fill-rule:evenodd;clip-rule:evenodd;fill:#005D6C;" d="M6.186,11.15c-0.269,0.656-1.72,2.808-2.284,0.994
		c-0.182-0.583,0.109-0.993,0.785-1.359C5.518,10.333,5.709,10.608,6.186,11.15z"/>
	<path style="fill-rule:evenodd;clip-rule:evenodd;fill:#005D6C;" d="M6.687,6.015c0.346-0.033,0.448,0.044,0.765,0.345
		c0.35,0.332,0.477,0.485,0.58,0.949C6.736,8.616,6.339,6.771,6.687,6.015z"/>
	<path style="fill-rule:evenodd;clip-rule:evenodd;fill:#F7941D;" d="M7.048,8.191C6.963,8.657,6.966,8.686,6.626,8.982
		c-0.5-0.148-1.111-0.265-1.307-0.673C5.185,8.031,5.337,7.527,5.481,7.144C6,7.112,6.114,7.236,6.405,7.509
		C6.679,7.767,6.899,7.963,7.048,8.191z"/>
	<path style="fill-rule:evenodd;clip-rule:evenodd;fill:#005D6C;" d="M20.445,14.828c-0.372,0.326-0.313,0.411-0.264,0.81
		c0.039,0.305,0.077,0.439,0.31,0.748C21.979,15.781,21.75,15.116,20.445,14.828z"/>
	<path style="fill-rule:evenodd;clip-rule:evenodd;fill:#005D6C;" d="M19.865,18.388c-0.727,0.107-0.93-0.422-0.917-1.144l0.31-0.11
		C19.434,17.142,20.478,17.382,19.865,18.388z"/>
	<path style="fill-rule:evenodd;clip-rule:evenodd;fill:#005D6C;" d="M18.12,17.494c0.385,0.633,0.294,1.133-0.354,1.232
		c-0.28-0.226-0.277-0.396-0.277-0.763C17.489,17.464,17.752,17.523,18.12,17.494z"/>
	<path style="fill-rule:evenodd;clip-rule:evenodd;fill:#005D6C;" d="M16.119,17.457c-0.615,0.23-0.674-0.133-0.516-0.688
		l0.276-0.148C16.021,16.59,16.824,16.562,16.119,17.457z"/>
	<path style="fill-rule:evenodd;clip-rule:evenodd;fill:#F7941D;" d="M16.157,16.476c0.218,0.201,0.274,0.346,0.419,0.373
		c0.257-0.228,0.599-0.468,0.613-0.805c0.004-0.108-0.202-0.091-0.218-0.221C16.517,15.938,16.418,16.13,16.157,16.476z"/>
	<path style="fill-rule:evenodd;clip-rule:evenodd;fill:#F7941D;" d="M18.595,17.072c-0.261-0.429-0.234-0.306-0.187-0.728
		c0.228-0.038,0.172-0.093,0.424,0.123C19.3,16.87,19.266,17.41,18.595,17.072z"/>
	<path style="fill-rule:evenodd;clip-rule:evenodd;fill:#009682;" d="M18.144,17.313c-0.193,0.204-0.407,0.181-0.54,0.064
		c-0.027-0.342-0.136-0.612,0.01-0.881c0.046-0.083,0.261-0.164,0.326-0.25C18.118,16.63,18.166,16.881,18.144,17.313z"/>
	<path style="fill-rule:evenodd;clip-rule:evenodd;fill:#F7941D;" d="M19.858,16.095c-0.42-0.086-0.782-0.265-0.93-0.478
		c0.138-0.126-0.008-0.246,0.198-0.313c0.462-0.151,0.487-0.161,0.93,0.002C20.093,15.665,20.123,15.979,19.858,16.095z"/>
	<path style="fill-rule:evenodd;clip-rule:evenodd;fill:#005D6C;" d="M18.81,14.105c-0.48-0.692-0.269-1.193,0.569-1.186
		C20.008,13.872,19.065,14.119,18.81,14.105z"/>
	<path style="fill-rule:evenodd;clip-rule:evenodd;fill:#009682;" d="M18.188,14.744c0.251,0.145,0.348,0.265,0.479,0.264
		c0.136-0.251,0.337-0.529,0.234-0.837c-0.033-0.099-0.2-0.047-0.257-0.162C18.302,14.193,18.288,14.385,18.188,14.744z"/>
	<path style="fill-rule:evenodd;clip-rule:evenodd;fill:#FFCA05;" d="M16.774,15.375c0.717,1.337,2.46,0.878,2.096,0.173
		c-0.043-0.084-0.921-0.88-1.035-0.917C17.357,14.479,16.967,15.1,16.774,15.375z"/>
	<path style="fill-rule:evenodd;clip-rule:evenodd;fill:#005D6C;" d="M12.596,2.377c0.261,0.293,0.327,0.247,0.645,0.207
		c0.242-0.031,0.349-0.062,0.593-0.249C13.349,1.154,12.82,1.338,12.596,2.377z"/>
	<path style="fill-rule:evenodd;clip-rule:evenodd;fill:#005D6C;" d="M15.43,2.826c0.088,0.578-0.333,0.742-0.907,0.734
		l-0.088-0.247C14.439,3.173,14.627,2.343,15.43,2.826z"/>
	<path style="fill-rule:evenodd;clip-rule:evenodd;fill:#005D6C;" d="M14.725,4.218c0.502-0.309,0.9-0.238,0.981,0.278
		c-0.178,0.223-0.314,0.221-0.605,0.222C14.703,4.72,14.75,4.51,14.725,4.218z"/>
	<path style="fill-rule:evenodd;clip-rule:evenodd;fill:#005D6C;" d="M14.702,5.81c0.186,0.488-0.104,0.537-0.546,0.412
		l-0.118-0.218C14.013,5.891,13.987,5.252,14.702,5.81z"/>
	<path style="fill-rule:evenodd;clip-rule:evenodd;fill:#009682;" d="M13.921,5.783c0.16-0.174,0.274-0.22,0.294-0.335
		c-0.181-0.203-0.374-0.474-0.641-0.484c-0.086-0.003-0.072,0.16-0.175,0.174C13.492,5.499,13.645,5.576,13.921,5.783z"/>
	<path style="fill-rule:evenodd;clip-rule:evenodd;fill:#009682;" d="M14.387,3.842c-0.339,0.208-0.242,0.188-0.578,0.15
		c-0.032-0.181-0.075-0.137,0.096-0.338C14.225,3.28,14.655,3.306,14.387,3.842z"/>
	<path style="fill-rule:evenodd;clip-rule:evenodd;fill:#F7941D;" d="M14.581,4.2c0.164,0.152,0.146,0.323,0.054,0.429
		c-0.272,0.023-0.487,0.11-0.701-0.005c-0.066-0.036-0.132-0.207-0.2-0.258C14.038,4.222,14.237,4.183,14.581,4.2z"/>
	<path style="fill-rule:evenodd;clip-rule:evenodd;fill:#F7941D;" d="M13.607,2.839c-0.068,0.335-0.208,0.623-0.378,0.742
		c-0.101-0.11-0.196,0.007-0.249-0.156c-0.123-0.367-0.131-0.387-0.001-0.739C13.263,2.655,13.514,2.629,13.607,2.839z"/>
	<path style="fill-rule:evenodd;clip-rule:evenodd;fill:#005D6C;" d="M12.026,3.681c-0.548,0.384-0.948,0.218-0.946-0.449
		C11.836,2.729,12.037,3.477,12.026,3.681z"/>
	<path style="fill-rule:evenodd;clip-rule:evenodd;fill:#F7941D;" d="M12.536,4.174c0.115-0.201,0.21-0.278,0.209-0.382
		c-0.201-0.107-0.422-0.267-0.667-0.184C12,3.635,12.042,3.767,11.951,3.813C12.098,4.084,12.251,4.096,12.536,4.174z"/>
	<path style="fill-rule:evenodd;clip-rule:evenodd;fill:#FFCA05;" d="M13.043,5.296c1.061-0.575,0.69-1.96,0.131-1.67
		c-0.067,0.035-0.698,0.736-0.727,0.827C12.329,4.835,12.824,5.144,13.043,5.296z"/>
	<path style="fill-rule:evenodd;clip-rule:evenodd;fill:#005D6C;" d="M13.585,15.072c0.536-0.106,0.997-0.325,1.586-0.261
		c0.269,0.677,0.079,1.294-0.641,1.516C13.567,16.623,13.452,15.779,13.585,15.072z"/>
	<path style="fill-rule:evenodd;clip-rule:evenodd;fill:#005D6C;" d="M16.545,12.959c-0.649-0.401-0.743-0.37-1.444-0.423
		c-0.376,0.528-0.626,1.351-0.537,1.867C16.023,14.777,16.226,14.003,16.545,12.959z"/>
	<path style="fill-rule:evenodd;clip-rule:evenodd;fill:#005D6C;" d="M15.297,14.726c0.497-0.226,0.895-0.546,1.483-0.62
		c0.417,0.598,0.371,0.836-0.278,1.218C16.391,16.272,15.33,15.445,15.297,14.726z"/>
	<path style="fill-rule:evenodd;clip-rule:evenodd;fill:#005D6C;" d="M13.826,14.736c-0.484-0.278-0.149-0.566-0.164-2.073
		l0.93-0.689c0.229,0.641,0.095,0.818-0.072,1.488C14.392,13.973,14.246,14.555,13.826,14.736z"/>
	<path style="fill-rule:evenodd;clip-rule:evenodd;fill:#005D6C;" d="M11.911,7.298c0.112-0.073,0.052-0.428,0.433-0.89
		c0.173-0.209,0.502-0.14,0.596-0.376c0.087-0.22-0.023-0.556-0.038-0.747c-0.803-0.169-1.214,0.373-1.657,0.759
		C11.188,6.376,11.12,6.827,11.911,7.298z"/>
	<path style="fill-rule:evenodd;clip-rule:evenodd;fill:#005D6C;" d="M8.608,12.926c-0.347,0.559-0.88,0.583-1.376,0.301
		c-0.479-0.272-1.185-0.699-1.517-1.105c1.132-0.148,1.313-0.81,1.936-0.466C8.075,11.888,8.288,12.519,8.608,12.926z"/>
	<path style="fill-rule:evenodd;clip-rule:evenodd;fill:#005D6C;" d="M12.431,13.51c-0.271-0.474-0.626-0.841-0.755-1.419
		c0.556-0.471,1.202-0.488,1.642,0.122C13.908,13.031,13.145,13.41,12.431,13.51z"/>
	<path style="fill-rule:evenodd;clip-rule:evenodd;fill:#005D6C;" d="M10.241,14.231c-0.252-0.506-0.358-1.269-0.205-1.736
		c0.381-0.046,0.9-0.226,1.259-0.063c0.511,0.23,0.802,0.841,0.793,0.85C12.678,14.013,10.747,14.263,10.241,14.231z"/>
	<path style="fill-rule:evenodd;clip-rule:evenodd;fill:#005D6C;" d="M9.658,12.659c-0.514-0.084-0.559,0.035-0.897,0.391
		c-0.26,0.274-0.36,0.413-0.513,0.867C9.658,14.806,10.141,14.078,9.658,12.659z"/>
	<path style="fill-rule:evenodd;clip-rule:evenodd;fill:#005D6C;" d="M13.594,8.078c-0.285-0.46-0.454-0.893-0.873-1.348
		c-0.571-0.025-0.812,0.301-0.476,0.941C12.695,8.529,13.266,8.385,13.594,8.078z"/>
	<path style="fill-rule:evenodd;clip-rule:evenodd;fill:#005D6C;" d="M12.367,9.166c-0.08-0.501-0.158-0.448-0.247-0.849
		c-0.092-0.411,0.013-0.445-0.135-0.877c-0.509-0.165-0.615-0.17-1.109-0.011C11.03,8.411,11.724,9.096,12.367,9.166z"/>
	<path style="fill-rule:evenodd;clip-rule:evenodd;fill:#F7941D;" d="M9.125,9.936c-0.525,0.182-2.988-0.769-1.5-1.942
		c0.115,0.07,0.396-0.208,0.59-0.127C8.463,7.967,8.626,8.43,8.721,8.538C8.963,8.81,9.193,9.602,9.125,9.936z"/>
	<path style="fill-rule:evenodd;clip-rule:evenodd;fill:#009682;" d="M5.579,9.347L5.558,8.901l0.412,0.11
		c0.665,0.31,1.416,0.718,1.797,1.106c-0.039,0.867-0.319,0.835-0.841,1.41c-0.688-0.235-0.7-0.493-0.906-0.988
		C5.837,10.097,5.695,9.79,5.579,9.347z"/>
	<path style="fill-rule:evenodd;clip-rule:evenodd;fill:#F7941D;" d="M10.342,11.735c-0.507,0.424-0.829,0.723-1.628,0.912
		c-0.392-0.643-0.792-1.498-0.868-2.277C8.51,10.373,9.861,10.808,10.342,11.735z"/>
	<path style="fill-rule:evenodd;clip-rule:evenodd;fill:#005D6C;" d="M10.503,9.851c-0.106-0.43-0.057-1.035,0.141-1.367
		c0.706,0.081,1.438,0.952,1.439,0.956C12.41,10.102,10.886,9.962,10.503,9.851z"/>
	<path style="fill-rule:evenodd;clip-rule:evenodd;fill:#005D6C;" d="M9.642,9.619C9.519,9.484,8.827,8.367,9.027,7.774
		c0.599,0.023,0.816,0.56,1.06,0.913C10.458,9.224,10.678,9.761,9.642,9.619z"/>
	<path style="fill-rule:evenodd;clip-rule:evenodd;fill:#FFCA05;" d="M13.256,10.793c-0.264,0.545-0.515,0.868-1.321,0.967
		c-0.27,0.033-0.725,0.406-0.998,0.352c-0.322-0.064-0.457-0.577-0.674-0.821c0.028-0.247,0.119-0.463,0.249-0.647
		C11.147,9.757,12.76,9.661,13.256,10.793z"/>
	<path style="fill-rule:evenodd;clip-rule:evenodd;fill:#009682;" d="M10.052,9.945c0.189,0.533,0.206,0.39-0.051,0.866
		c-0.349,0.007-0.292,0.08-0.564-0.21C8.932,10.065,9.222,9.45,10.052,9.945z"/>
	<path style="fill-rule:evenodd;clip-rule:evenodd;fill:#005D6C;" d="M13.979,7.854c0.703,0.072,3.151,0.751,1.539,1.569
		c-0.517,0.263-0.988,0.123-1.513-0.326C13.356,8.544,13.575,8.338,13.979,7.854z"/>
	<path style="fill-rule:evenodd;clip-rule:evenodd;fill:#F7941D;" d="M14.357,9.714c-0.096,0.52-0.091,0.551-0.47,0.882
		c-0.937-0.277-1.671-0.994-1.278-2.05c0.58-0.036,0.707,0.103,1.031,0.406C13.945,9.24,14.19,9.46,14.357,9.714z"/>
	<path style="fill-rule:evenodd;clip-rule:evenodd;fill:#009682;" d="M17.021,10.019c-0.005,0.177,0.041,0.542-0.231,0.847
		c-0.714,0.796-2.062,1.346-2.824,0.021c0.313-0.223,0.857-0.87,1.169-0.98C15.577,9.75,16.648,9.814,17.021,10.019z"/>
	<path style="fill-rule:evenodd;clip-rule:evenodd;fill:#F7941D;" d="M13.159,11.233c0.589-0.303,0.919,0.09,1.118,0.711
		l-0.233,0.184C13.892,12.174,12.929,12.272,13.159,11.233z"/>
	<path style="fill-rule:evenodd;clip-rule:evenodd;fill:#005D6C;" d="M19.043,11.669c-0.58,0.422-0.608,0.283-1.098,0.594
		c-0.502,0.318-0.428,0.466-1.009,0.744c-0.686-0.385-0.8-0.495-1.15-1.195C16.919,10.982,18.312,11.04,19.043,11.669z"/>
	<path style="fill-rule:evenodd;clip-rule:evenodd;fill:#005D6C;" d="M18.155,8.342c-0.132-0.017-0.317,0.292-0.908,0.396
		c-0.266,0.048-0.472-0.219-0.697-0.1c-0.208,0.11-0.342,0.438-0.455,0.593c0.5,0.65,1.167,0.504,1.753,0.496
		C18.107,9.513,18.451,9.213,18.155,8.342z"/>
	<path style="fill-rule:evenodd;clip-rule:evenodd;fill:#F7941D;" d="M19.871,9.809c-0.352-0.525-0.588-0.114-2.099,0.013
		l-0.519,0.272l-0.027,0.854c0.677,0.2,0.833,0.03,1.479-0.225C19.195,10.528,19.755,10.305,19.871,9.809z"/>
	<path style="fill-rule:evenodd;clip-rule:evenodd;fill:#005D6C;" d="M19.137,10.867c0.135-0.123,1.252-0.815,1.845-0.615
		c-0.023,0.599-0.56,0.816-0.913,1.06C19.532,11.683,18.995,11.904,19.137,10.867z"/>
	<path style="fill-rule:evenodd;clip-rule:evenodd;fill:#005D6C;" d="M18.475,9.126c0.502,0.27,0.596,0.204,1.092,0.091
		c0.379-0.087,0.541-0.145,0.88-0.403C19.331,7.609,18.537,7.927,18.475,9.126z"/>
	<path style="fill-rule:evenodd;clip-rule:evenodd;fill:#009682;" d="M20.917,9.222c0.19,0.533,0.207,0.39-0.051,0.866
		c-0.348,0.007-0.291,0.08-0.563-0.209C19.798,9.342,20.086,8.727,20.917,9.222z"/>
	<path style="fill-rule:evenodd;clip-rule:evenodd;fill:#005D6C;" d="M22.341,7.728c-0.354,0.39-0.394,0.271-0.7,0.561
		c-0.313,0.296-0.239,0.418-0.613,0.684c-0.55-0.296-0.648-0.384-1.003-0.966C20.714,7.242,21.723,7.225,22.341,7.728z"/>
	<path style="fill-rule:evenodd;clip-rule:evenodd;fill:#005D6C;" d="M22.488,8.124c0.125,0.046,0.375-0.216,0.971-0.189
		c0.271,0.013,0.415,0.318,0.66,0.25c0.227-0.062,0.429-0.353,0.573-0.48c-0.347-0.744-1.027-0.746-1.603-0.867
		C22.791,6.992,22.39,7.209,22.488,8.124z"/>
	<path style="fill-rule:evenodd;clip-rule:evenodd;fill:#009682;" d="M22.545,8.436c-0.33-0.055-0.554-0.045-0.854,0.285
		c-0.101,0.111-0.414,0.196-0.477,0.336c-0.073,0.165,0.114,0.389,0.155,0.564c0.12,0.065,0.245,0.094,0.369,0.094
		C22.339,9.712,22.896,9.019,22.545,8.436z"/>
	<path style="fill-rule:evenodd;clip-rule:evenodd;fill:#005D6C;" d="M21.162,10.255c0.058-0.075,0.417-0.083,0.823-0.368
		c0.184-0.128,0.387-0.363,0.609-0.449c0.204-0.079,0.552-0.054,0.744-0.07c0.275,0.457-0.208,0.769-0.531,1.08
		C22.146,10.727,21.349,10.898,21.162,10.255z"/>
	<path style="fill-rule:evenodd;clip-rule:evenodd;fill:#005D6C;" d="M22.806,9.051c0.697,0.26,1.262,0.575,2.079,0.735
		c0.554-0.386,0.472-0.888-0.443-1.294C23.216,7.948,22.821,8.504,22.806,9.051z"/>
	<path style="fill-rule:evenodd;clip-rule:evenodd;fill:#005D6C;" d="M25.003,6.954c-0.194,0.434-0.081,0.332-0.115,0.774
		c-0.03,0.411-0.104,0.293-0.057,0.768c0.44,0.363,1.354,0.697,1.984,0.22C26.697,8.19,25.626,7.02,25.003,6.954z"/>
	<path style="fill-rule:evenodd;clip-rule:evenodd;fill:#005D6C;" d="M29.005,10.131l0.442-0.069l-0.19-0.382
		c-0.438-0.589-0.987-1.245-1.443-1.54c-0.842,0.211-0.756,0.479-1.214,1.105c0.368,0.626,0.623,0.588,1.148,0.691
		C28.218,10.028,28.548,10.105,29.005,10.131z"/>
	<path style="fill-rule:evenodd;clip-rule:evenodd;fill:#005D6C;" d="M28.932,10.64c-0.017,0.132,0.293,0.317,0.397,0.906
		c0.048,0.267,0.018,0.69,0.137,0.915c0.111,0.208,0.439,0.341,0.595,0.454c0.649-0.501,0.502-1.167,0.494-1.753
		C30.221,10.458,29.668,9.837,28.932,10.64z"/>
	<path style="fill-rule:evenodd;clip-rule:evenodd;fill:#005D6C;" d="M28.263,14.403c0.25-0.443,0.306-0.365,0.527-0.71
		c0.229-0.354,0.144-0.422,0.431-0.774c0.535,0.021,0.636,0.054,1.044,0.375C29.778,14.16,28.891,14.561,28.263,14.403z"/>
</g>
</svg>
